<svg version="1.1" viewBox="0.0 0.0 496.36482939632543 151.09186351706037" fill="none" stroke="none" stroke-linecap="square" stroke-miterlimit="10" xmlns:xlink="http://www.w3.org/1999/xlink" xmlns="http://www.w3.org/2000/svg"><clipPath id="p.0"><path d="m0 0l496.36484 0l0 151.09186l-496.36484 0l0 -151.09186z" clip-rule="nonzero"/></clipPath><g clip-path="url(#p.0)"><path fill="#000000" fill-opacity="0.0" d="m0 0l496.36484 0l0 151.09186l-496.36484 0z" fill-rule="evenodd"/><path fill="#3d85c6" d="m453.705 22.532808l7.113739 -3.641262l2.7287598 -9.492596l2.7287903 9.492596l7.113739 3.641262l-7.113739 3.641262l-2.7287903 9.492598l-2.7287598 -9.492598z" fill-rule="evenodd"/><path fill="#a2c4c9" d="m32.165653 36.27522l4.9833145 -2.0082855l1.6151085 -6.196438l1.6151123 6.196438l4.9833145 2.0082855l-4.9833145 2.0082893l-1.6151123 6.196434l-1.6151085 -6.196434z" fill-rule="evenodd"/><path fill="#6d9eeb" d="m117.00817 17.603304l4.9833145 -2.0082884l1.6151123 -6.196437l1.6151123 6.196437l4.983307 2.0082884l-4.983307 2.0082874l-1.6151123 6.196436l-1.6151123 -6.196436z" fill-rule="evenodd"/><path fill="#a4c2f4" d="m167.17877 43.884144l4.983322 -2.0082893l1.6151123 -6.196434l1.615097 6.196434l4.983322 2.0082893l-4.983322 2.0082855l-1.615097 6.196438l-1.6151123 -6.196438z" fill-rule="evenodd"/><path fill="#9fc5e8" d="m245.11841 121.6138l4.983322 -2.0082855l1.615097 -6.196434l1.6151123 6.196434l4.983307 2.0082855l-4.983307 2.0082855l-1.6151123 6.1964417l-1.615097 -6.1964417z" fill-rule="evenodd"/><path fill="#6fa8dc" d="m351.57248 121.6138l4.983307 -2.0082855l1.6151123 -6.196434l1.6151123 6.196434l4.983307 2.0082855l-4.983307 2.0082855l-1.6151123 6.1964417l-1.6151123 -6.1964417z" fill-rule="evenodd"/><path fill="#a4c2f4" d="m364.76932 55.70304l4.9833374 -2.0082893l1.6150818 -6.196434l1.6151123 6.196434l4.9833374 2.0082893l-4.9833374 2.0082855l-1.6151123 6.196438l-1.6150818 -6.196438z" fill-rule="evenodd"/><path fill="#000000" fill-opacity="0.0" d="m50.868767 34.892387l58.992126 -14.614172" fill-rule="evenodd"/><path stroke="#d9d2e9" stroke-width="1.0" stroke-linejoin="round" stroke-linecap="butt" d="m50.868767 34.892387l58.992126 -14.614172" fill-rule="evenodd"/><path fill="#000000" fill-opacity="0.0" d="m134.20079 21.041994l31.496063 17.637796" fill-rule="evenodd"/><path stroke="#d9d2e9" stroke-width="1.0" stroke-linejoin="round" stroke-linecap="butt" d="m134.20079 21.041994l31.496063 17.637796" fill-rule="evenodd"/><path fill="#000000" fill-opacity="0.0" d="m183.36351 46.986877l42.645676 16.409447" fill-rule="evenodd"/><path stroke="#d9d2e9" stroke-width="1.0" stroke-linejoin="round" stroke-linecap="butt" d="m183.36351 46.986877l42.645676 16.409447" fill-rule="evenodd"/><path fill="#000000" fill-opacity="0.0" d="m242.70473 78.40945l6.897629 32.787407" fill-rule="evenodd"/><path stroke="#d9d2e9" stroke-width="1.0" stroke-linejoin="round" stroke-linecap="butt" d="m242.70473 78.40945l6.897629 32.787407" fill-rule="evenodd"/><path fill="#000000" fill-opacity="0.0" d="m344.66272 121.249344l-79.811005 0.15747833" fill-rule="evenodd"/><path stroke="#d9d2e9" stroke-width="1.0" stroke-linejoin="round" stroke-linecap="butt" d="m344.66272 121.249344l-79.811005 0.15747833" fill-rule="evenodd"/><path fill="#000000" fill-opacity="0.0" d="m360.23752 109.02887l9.606323 -41.700783" fill-rule="evenodd"/><path stroke="#d9d2e9" stroke-width="1.0" stroke-linejoin="round" stroke-linecap="butt" d="m360.23752 109.02887l9.606323 -41.700783" fill-rule="evenodd"/><path fill="#000000" fill-opacity="0.0" d="m15.127296 42.44882l466.11023 0l0 99.244095l-466.11023 0z" fill-rule="evenodd"/><path fill="#674ea7" d="m35.939796 91.283195l17.640625 0l0.546875 3.0625l-18.84375 0l0.65625 -3.0625zm8.234375 -23.453125l0.828125 0.90625l-12.109375 36.109375q0 0.359375 0.71875 0.671875q0.71875 0.296875 1.90625 0.453125q1.203125 0.140625 2.59375 0.140625l0.78125 0l0 2.9375l-13.921875 0l0 -2.9375l0.296875 0q1.796875 0 2.90625 -0.59375q1.109375 -0.609375 1.765625 -2.65625l12.484375 -36.765625l5.640625 0l12.78125 37.25q0.59375 1.75 1.703125 2.265625q1.125 0.5 2.796875 0.5l0.359375 0l0 2.9375l-14.9375 0l0 -2.9375l0.78125 0q1.4375 0 2.640625 -0.09375q1.203125 -0.09375 1.921875 -0.234375q0.71875 -0.15625 0.71875 -0.328125l-12.65625 -37.625zm46.37433 32.8125q0 -1.546875 -0.71875 -2.59375q-0.71875 -1.0625 -1.984375 -1.6875q-1.265625 -0.625 -2.828125 -1.078125q-1.546875 -0.453125 -3.234375 -0.875q-1.96875 -0.421875 -3.859375 -1.015625q-1.890625 -0.609375 -3.421875 -1.625q-1.53125 -1.015625 -2.46875 -2.609375q-0.921875 -1.59375 -0.921875 -3.984375q0 -2.703125 1.375 -4.703125q1.375 -2.015625 3.953125 -3.125q2.59375 -1.109375 6.25 -1.109375q2.765625 0 4.859375 0.359375q2.09375 0.359375 3.53125 0.875q1.453125 0.5 2.171875 0.921875l0 7.015625l-4.625 0l0 -5.9375q0.484375 0 0.875 0.1875q0.390625 0.171875 0.625 0.46875q0.234375 0.296875 0.390625 0.71875q0.15625 0.421875 0.15625 1.015625q-0.78125 -0.828125 -1.984375 -1.359375q-1.203125 -0.546875 -2.703125 -0.84375q-1.5 -0.3125 -3.296875 -0.3125q-3.78125 0 -5.578125 1.453125q-1.796875 1.4375 -1.796875 3.828125q0 1.5625 0.71875 2.609375q0.71875 1.046875 1.9375 1.65625q1.234375 0.59375 2.859375 1.046875q1.625 0.453125 3.421875 0.875q1.859375 0.46875 3.78125 1.078125q1.921875 0.59375 3.4375 1.625q1.53125 1.015625 2.453125 2.640625q0.9375 1.609375 0.9375 4.078125q0 2.6875 -1.40625 4.859375q-1.40625 2.15625 -4.171875 3.390625q-2.75 1.21875 -6.828125 1.21875q-2.765625 0 -5.109375 -0.390625q-2.34375 -0.390625 -4.140625 -1.078125q-1.796875 -0.6875 -3.125 -1.46875l0 -7.375l4.6875 0l0 7.921875q-0.78125 -0.421875 -1.234375 -0.84375q-0.453125 -0.421875 -0.640625 -0.875q-0.171875 -0.453125 -0.171875 -0.921875q0 -0.484375 0.0625 -0.90625q1.03125 0.84375 2.46875 1.46875q1.4375 0.625 3.265625 1.0q1.828125 0.359375 3.9375 0.359375q2.6875 0 4.453125 -0.65625q1.78125 -0.671875 2.703125 -1.984375q0.9375 -1.328125 0.9375 -3.3125zm7.9718475 -20.640625l0 -2.875l0.671875 0q1.96875 0 3.3125 -0.265625q1.359375 -0.265625 2.078125 -1.109375q0.71875 -0.84375 0.71875 -2.515625l3.125 3.59375l11.40625 0l0 3.171875l-21.3125 0zm10.859375 19.921875q0 2.46875 0.75 3.875q0.75 1.40625 2.15625 1.984375q1.421875 0.5625 3.34375 0.5625q1.5 0 2.78125 -0.203125q1.296875 -0.21875 1.78125 -0.328125l0 3.109375q-0.609375 0.1875 -1.484375 0.359375q-0.859375 0.1875 -1.828125 0.296875q-0.953125 0.125 -1.90625 0.125q-2.640625 0 -4.953125 -0.796875q-2.3125 -0.8125 -3.703125 -2.9375q-1.375 -2.140625 -1.375 -6.046875l0 -22.1875l0.359375 -0.484375l0 -9.609375l4.078125 0l0 32.28125zm37.38436 -23.453125l0 4.859375q-0.484375 -0.125 -1.046875 -0.171875q-0.5625 -0.0625 -1.171875 -0.09375q-0.59375 -0.03125 -1.140625 -0.03125q-1.625 0 -2.921875 0.359375q-1.28125 0.359375 -2.390625 1.109375q-1.109375 0.75 -2.125 1.921875q-1.015625 1.171875 -2.09375 2.78125l0 -2.578125q1.5 -2.765625 3.078125 -4.625q1.59375 -1.859375 3.421875 -2.84375q1.828125 -0.984375 4.109375 -0.984375q0.71875 0 1.375 0.09375q0.671875 0.078125 0.90625 0.203125zm-21.781258 32.578125l0 -2.578125l0.1875 0q2.34375 0 3.7187576 -0.65625q1.375 -0.671875 1.375 -2.703125l0 -20.640625q0 -0.90625 -0.515625 -1.34375q-0.5 -0.453125 -1.546875 -0.75q-1.0468826 -0.3125 -2.6093826 -0.609375l-0.609375 -0.125l0 -2.8125l8.890633 0l0.65625 7.859375l0.234375 -0.234375l0 20.6875q0 0.546875 0.8125 0.84375q0.8125 0.296875 1.953125 0.390625q1.140625 0.09375 2.09375 0.09375l1.328125 0l0 2.578125l-15.968758 0zm57.35685 -16.078125q0 5.15625 -1.953125 8.90625q-1.9375 3.75 -5.484375 5.796875q-3.53125 2.03125 -8.28125 2.03125q-4.734375 0 -8.28125 -2.03125q-3.53125 -2.046875 -5.484375 -5.796875q-1.953125 -3.75 -1.953125 -8.90625q0 -3.84375 1.109375 -6.921875q1.109375 -3.09375 3.171875 -5.28125q2.078125 -2.203125 4.984375 -3.359375q2.921875 -1.171875 6.453125 -1.171875q3.609375 0 6.484375 1.171875q2.875 1.15625 4.9375 3.359375q2.078125 2.1875 3.1875 5.28125q1.109375 3.078125 1.109375 6.921875zm-26.6875 0q0 4.5 1.25 7.5q1.265625 3.0 3.6875 4.53125q2.4375 1.53125 6.03125 1.53125q3.671875 0 6.09375 -1.5q2.4375 -1.5 3.65625 -4.53125q1.234375 -3.03125 1.234375 -7.53125q0 -4.265625 -1.234375 -7.296875q-1.21875 -3.03125 -3.65625 -4.609375q-2.421875 -1.59375 -6.09375 -1.59375q-3.59375 0 -6.03125 1.59375q-2.421875 1.578125 -3.6875 4.609375q-1.25 3.03125 -1.25 7.296875zm52.30934 14.640625l-0.78125 -1.078125l12.3125 -35.890625q0 -0.40625 -0.734375 -0.671875q-0.71875 -0.28125 -1.921875 -0.421875q-1.1875 -0.15625 -2.5625 -0.15625l-0.84375 0l0 -2.9375l13.984375 0l0 2.9375l-0.3125 0q-1.796875 0 -2.875 0.609375q-1.078125 0.59375 -1.796875 2.625l-12.71875 36.78125l-5.703125 0l-12.96875 -37.265625q-0.65625 -1.796875 -1.734375 -2.265625q-1.078125 -0.484375 -2.8125 -0.484375l-0.359375 0l0 -2.9375l15.0 0l0 2.9375l-0.84375 0q-1.375 0 -2.578125 0.09375q-1.203125 0.078125 -1.953125 0.203125q-0.75 0.125 -0.75 0.359375l12.953125 37.5625zm29.829956 -37.921875q-1.5 0 -2.53125 -0.859375q-1.015625 -0.875 -1.015625 -2.6875q0 -1.734375 0.984375 -2.5937538q1.0 -0.875 2.5625 -0.875q1.5625 0 2.578125 0.875q1.015625 0.8593788 1.015625 2.5937538q0 1.8125 -1.015625 2.6875q-1.015625 0.859375 -2.578125 0.859375zm2.8125 7.140625l0 26.453125q0 1.921875 1.34375 2.5625q1.359375 0.625 3.703125 0.625l0.171875 0l0 2.578125l-14.9375 0l0 -2.578125l0.1875 0q2.328125 0 3.703125 -0.625q1.390625 -0.640625 1.390625 -2.5625l0 -20.8125q0 -1.328125 -1.171875 -1.765625q-1.171875 -0.453125 -3.5 -0.9375l-0.671875 -0.125l0 -2.8125l9.78125 0zm30.664337 23.8125q0 -1.546875 -0.71875 -2.59375q-0.71875 -1.0625 -1.984375 -1.6875q-1.265625 -0.625 -2.828125 -1.078125q-1.546875 -0.453125 -3.234375 -0.875q-1.96875 -0.421875 -3.859375 -1.015625q-1.890625 -0.609375 -3.4218597 -1.625q-1.53125 -1.015625 -2.46875 -2.609375q-0.921875 -1.59375 -0.921875 -3.984375q0 -2.703125 1.375 -4.703125q1.375 -2.015625 3.9531097 -3.125q2.59375 -1.109375 6.25 -1.109375q2.765625 0 4.859375 0.359375q2.09375 0.359375 3.53125 0.875q1.453125 0.5 2.171875 0.921875l0 7.015625l-4.625 0l0 -5.9375q0.484375 0 0.875 0.1875q0.390625 0.171875 0.625 0.46875q0.234375 0.296875 0.390625 0.71875q0.15625 0.421875 0.15625 1.015625q-0.78125 -0.828125 -1.984375 -1.359375q-1.203125 -0.546875 -2.703125 -0.84375q-1.5 -0.3125 -3.296875 -0.3125q-3.78125 0 -5.578125 1.453125q-1.796875 1.4375 -1.796875 3.828125q0 1.5625 0.71875 2.609375q0.71875 1.046875 1.9375 1.65625q1.234375 0.59375 2.859375 1.046875q1.625 0.453125 3.421875 0.875q1.859375 0.46875 3.78125 1.078125q1.921875 0.59375 3.4375 1.625q1.53125 1.015625 2.453125 2.640625q0.9375 1.609375 0.9375 4.078125q0 2.6875 -1.40625 4.859375q-1.40625 2.15625 -4.171875 3.390625q-2.75 1.21875 -6.828125 1.21875q-2.765625 0 -5.109375 -0.390625q-2.3437347 -0.390625 -4.1406097 -1.078125q-1.796875 -0.6875 -3.125 -1.46875l0 -7.375l4.6875 0l0 7.921875q-0.78125 -0.421875 -1.234375 -0.84375q-0.453125 -0.421875 -0.640625 -0.875q-0.171875 -0.453125 -0.171875 -0.921875q0 -0.484375 0.0625 -0.90625q1.03125 0.84375 2.46875 1.46875q1.4374847 0.625 3.2656097 1.0q1.828125 0.359375 3.9375 0.359375q2.6875 0 4.453125 -0.65625q1.78125 -0.671875 2.703125 -1.984375q0.9375 -1.328125 0.9375 -3.3125zm29.159332 -34.1875q3.171875 0 5.609375 0.6875q2.4375 0.6875 4.109375 2.046875q1.6875 1.34375 2.578125 3.328125q0.90625 1.96875 0.90625 4.546875q0 2.765625 -1.390625 4.984375q-1.375 2.21875 -4.140625 3.484375q-2.75 1.25 -6.890625 1.375l2.28125 -1.375l0 2.21875l-2.15625 -1.4375q4.609375 0.171875 7.75 1.5625q3.15625 1.375 4.78125 3.78125q1.625 2.390625 1.625 5.578125q0 2.875 -1.0 5.09375q-0.984375 2.21875 -2.84375 3.71875q-1.859375 1.5 -4.5 2.25q-2.640625 0.75 -6.125 0.75l-19.671875 0l0 -2.9375l0.65625 0q2.21875 0 3.65625 -0.421875q1.4375 -0.421875 1.4375 -1.734375l0 -32.40625q0 -1.3125 -1.4375 -1.734375q-1.4375 -0.421875 -3.65625 -0.421875l-0.65625 0l0 -2.9375l19.078125 0zm-10.375 18.78125l9.890625 0q3.0625 0 5.046875 -0.9375q1.984375 -0.9375 2.90625 -2.765625q0.9375 -1.828125 0.9375 -4.40625q0 -2.453125 -0.90625 -4.125q-0.90625 -1.6875 -2.765625 -2.5625q-1.859375 -0.875 -4.796875 -0.875l-8.640625 0l0 36.359375l9.25 0q3.234375 0 5.359375 -0.984375q2.140625 -0.984375 3.1875 -2.96875q1.046875 -1.984375 1.046875 -4.796875q0 -2.765625 -1.140625 -4.765625q-1.140625 -2.015625 -3.421875 -3.09375q-2.28125 -1.078125 -5.8125 -1.078125l-10.140625 0l0 -3.0zm36.954346 8.03125q0 3.546875 0.84375 6.0625q0.84375 2.515625 2.359375 4.109375q1.53125 1.59375 3.546875 2.34375q2.015625 0.75 4.40625 0.75q2.640625 0 4.53125 -0.875q1.890625 -0.875 3.203125 -2.25q1.328125 -1.375 2.234375 -2.875l2.578125 1.96875q-1.140625 2.046875 -2.953125 3.734375q-1.796875 1.671875 -4.234375 2.578125q-2.421875 0.890625 -5.421875 0.890625q-4.4375 0 -8.015625 -1.921875q-3.5625 -1.921875 -5.640625 -5.609375q-2.0625 -3.6875 -2.0625 -8.96875q0 -5.09375 1.890625 -8.875q1.890625 -3.78125 5.21875 -5.9375q3.328125 -2.15625 7.65625 -2.15625q3.421875 0 5.9375 1.140625q2.515625 1.125 4.1875 3.375q1.6875 2.25 2.5625 5.625q0.875 3.359375 0.875 7.796875l-24.90625 0l0 -3.0625l21.609375 0l-1.390625 1.203125q-0.109375 -3.484375 -0.65625 -5.9375q-0.546875 -2.46875 -1.59375 -4.0q-1.046875 -1.53125 -2.671875 -2.21875q-1.609375 -0.6875 -3.953125 -0.6875q-2.28125 0 -4.171875 0.875q-1.890625 0.859375 -3.21875 2.609375q-1.3125 1.734375 -2.03125 4.3125q-0.71875 2.578125 -0.71875 6.0zm28.975586 15.78125l0 -2.578125l0.1875 0q1.5625 0 2.703125 -0.265625q1.140625 -0.28125 1.765625 -1.03125q0.625 -0.75 0.625 -2.0625l0 -20.640625q0 -0.90625 -0.515625 -1.34375q-0.5 -0.453125 -1.546875 -0.75q-1.046875 -0.3125 -2.609375 -0.609375l-0.609375 -0.125l0 -2.8125l8.828125 0l0.71875 7.015625l0.171875 0.296875l0 21.71875q0 0.1875 0.71875 0.34375q0.734375 0.140625 1.75 0.203125q1.015625 0.0625 1.859375 0.0625l0.234375 0l0 2.578125l-14.28125 0zm35.640625 0l-14.28125 0l0 -2.578125l0.1875 0q0.84375 0 1.859375 -0.0625q1.015625 -0.0625 1.765625 -0.203125q0.75 -0.15625 0.75 -0.34375l0 -19.90625q0 -2.171875 -0.546875 -3.515625q-0.53125 -1.34375 -1.796875 -2.03125q-1.25 -0.703125 -3.40625 -0.703125q-2.046875 0 -3.96875 0.8125q-1.921875 0.8125 -3.71875 2.40625q-1.796875 1.578125 -3.546875 3.984375l-0.109375 -2.875q1.796875 -2.578125 3.75 -4.3125q1.953125 -1.75 4.140625 -2.609375q2.1875 -0.875 4.703125 -0.875q2.875 0 4.859375 0.984375q1.984375 0.984375 3.03125 3.0q1.046875 2.015625 1.046875 5.0625l0 17.828125q0 1.3125 0.625 2.0625q0.640625 0.75 1.78125 1.03125q1.140625 0.265625 2.703125 0.265625l0.171875 0l0 2.578125zm20.649963 -2.453125q2.75 0 4.703125 -0.953125q1.953125 -0.96875 3.265625 -2.4375q1.328125 -1.46875 2.28125 -3.09375l2.53125 1.984375q-1.140625 2.21875 -2.984375 3.953125q-1.828125 1.734375 -4.296875 2.734375q-2.453125 0.984375 -5.5625 0.984375q-4.859375 0 -8.46875 -2.03125q-3.59375 -2.046875 -5.546875 -5.828125q-1.953125 -3.78125 -1.953125 -8.9375q0 -5.109375 1.984375 -8.859375q1.984375 -3.75 5.609375 -5.8125q3.625 -2.0625 8.671875 -2.0625q3.171875 0 5.484375 0.546875q2.3125 0.53125 3.8125 1.21875q1.5 0.6875 2.109375 1.171875l0 8.28125l-4.6875 0l0 -7.265625q0.65625 0.0625 1.140625 0.3125q0.484375 0.234375 0.78125 0.53125q0.296875 0.296875 0.40625 0.65625q0.125 0.359375 0.015625 0.71875q-1.203125 -1.265625 -3.546875 -2.125q-2.34375 -0.875 -5.453125 -0.875q-3.96875 0 -6.546875 1.625q-2.578125 1.609375 -3.8125 4.640625q-1.21875 3.03125 -1.21875 7.296875q0 3.359375 0.71875 5.90625q0.71875 2.546875 2.09375 4.265625q1.375 1.703125 3.5 2.578125q2.140625 0.875 4.96875 0.875zm27.350586 -43.031254l0 42.29688q0 0.1875 0.71875 0.34375q0.71875 0.140625 1.734375 0.203125q1.03125 0.0625 1.875 0.0625l0.234375 0l0 2.578125l-14.34375 0l0 -2.578125l0.1875 0q1.5625 0 2.703125 -0.265625q1.140625 -0.28125 1.765625 -1.03125q0.625 -0.75 0.625 -2.0625l0 -33.90625q0 -0.890625 -0.515625 -1.34375q-0.5 -0.453125 -1.53125 -0.75q-1.015625 -0.296875 -2.625 -0.609375l-0.609375 -0.109375l0 -2.8281288l9.78125 0zm25.859375 45.48438l-14.28125 0l0 -2.578125l0.25 0q0.828125 0 1.84375 -0.0625q1.03125 -0.0625 1.75 -0.203125q0.71875 -0.15625 0.71875 -0.34375l0 -19.90625q0 -2.171875 -0.546875 -3.515625q-0.53125 -1.34375 -1.796875 -2.03125q-1.25 -0.703125 -3.40625 -0.703125q-2.046875 0 -3.96875 0.8125q-1.921875 0.8125 -3.6875 2.40625q-1.765625 1.578125 -3.578125 3.984375l-0.046875 -2.875q1.734375 -2.578125 3.6875 -4.3125q1.953125 -1.75 4.140625 -2.609375q2.1875 -0.875 4.703125 -0.875q2.875 0 4.890625 0.984375q2.015625 0.984375 3.0625 3.0q1.046875 2.015625 1.046875 5.0625l0 17.828125q0 1.3125 0.59375 2.0625q0.609375 0.75 1.78125 1.03125q1.171875 0.265625 2.671875 0.265625l0.171875 0l0 2.578125z" fill-rule="nonzero"/><path fill="#8e7cc3" d="m230.58398 66.46719l5.223068 -3.1142998l2.4934692 -6.5234985l2.4934692 6.5234985l5.223068 3.1142998l-5.223068 3.114296l-2.4934692 6.5234985l-2.4934692 -6.5234985z" fill-rule="evenodd"/><path fill="#000000" fill-opacity="0.0" d="m251.26378 66.20735l109.03938 -10.519688" fill-rule="evenodd"/><path stroke="#d9d2e9" stroke-width="1.0" stroke-linejoin="round" stroke-linecap="butt" d="m251.26378 66.20735l109.03938 -10.519688" fill-rule="evenodd"/></g></svg>